# xmcd CD database file
# Copyright (C) 1997 Ti Kan
#
# Track frame offsets:
#  150
#  17405
#  32757
#  50942
#  64462
#  81237
#  95732
#  112235
#  128527
#  145537
#
# Disc length: 2133 seconds
#
# Revision: 1
# Processed by: cddbd v1.4b41PL1 Copyright (c) Steve Scherf et al.
# Submitted via: CDWizzard Release:4.22
#
DISCID=8c08530a
DTITLE=Shenandoah - Greatest Hits
DYEAR=1900
DGENRE=
TTITLE0=Any Ole Stretch Of Blacktop
TTITLE1=Mama Knows
TTITLE2=Sunday In The South
TTITLE3=The Church On Cumberland Road
TTITLE4=Two Dozen Roses
TTITLE5=(It's Hard To Live Up To) The Rock
TTITLE6=Next To You, Next To Me
TTITLE7=Ghost In This House
TTITLE8=I Got You
TTITLE9=The Moon Over Georgia
EXTD=
EXTT0=
EXTT1=
EXTT2=
EXTT3=
EXTT4=
EXTT5=
EXTT6=
EXTT7=
EXTT8=
EXTT9=
PLAYORDER=
